<?xml version="1.0" encoding="UTF-8"?>
<svg width="20px" height="19px" viewBox="0 0 20 19" version="1.1" xmlns="http://www.w3.org/2000/svg" xmlns:xlink="http://www.w3.org/1999/xlink">
    <!-- Generator: Sketch 60 (88103) - https://sketch.com -->
    <title>形状</title>
    <desc>Created with Sketch.</desc>
    <g id="页面-1" stroke="none" stroke-width="1" fill="none" fill-rule="evenodd">
        <g id="3.1红木家具产业概况" transform="translate(-40.000000, -177.000000)" fill="#2C46FF" fill-rule="nonzero">
            <g id="侧边栏">
                <g id="分组-17" transform="translate(0.000000, 160.000000)">
                    <g id="分组-5" transform="translate(40.000000, 15.000000)">
                        <path d="M2.4999992,19.1195673 L17.4999898,19.1195673 L17.4999898,19.1195673 C17.9602273,19.1195673 18.3333221,19.4845531 18.3333221,19.9347836 C18.3333221,20.385016 17.9602255,20.75 17.4999898,20.75 L2.49999916,20.75 L2.49999913,20.75 C2.03976153,20.75 1.66666673,20.3850142 1.66666673,19.9347836 C1.66666673,19.4845513 2.0397634,19.1195673 2.49999913,19.1195673 L2.4999992,19.1195673 Z M1.66666681,2 L18.3333334,2 L18.3333333,2 C19.2538085,2 20,2.72996981 20,3.63043454 C20,3.63043454 20,3.63043454 20,3.63043454 L20,15.858689 L20,15.858689 C20,16.7591538 19.2538085,17.4891236 18.3333333,17.4891236 L1.66666673,17.4891236 L1.66666666,17.4891236 C0.746191465,17.4891236 0,16.7591538 0,15.858689 C0,15.858689 0,15.858689 0,15.858689 L0,3.63043454 L0,3.63043479 C0,2.72997005 0.746191465,2 1.66666666,2 L1.66666681,2 Z M1.66666673,4.44564724 L1.66666673,15.0434764 L1.66666673,15.0434762 C1.66666673,15.4937086 2.03976347,15.8586926 2.4999992,15.8586926 L17.4999898,15.8586926 L17.4999898,15.8586926 C17.9602273,15.8586926 18.3333221,15.4937068 18.3333221,15.0434762 C18.3333221,15.0434762 18.3333221,15.0434762 18.3333221,15.0434762 L18.3333221,4.44564711 L18.3333221,4.44564711 C18.3333221,3.99541475 17.9602255,3.63043076 17.4999898,3.63043076 C17.4999898,3.63043076 17.4999898,3.63043076 17.4999898,3.63043076 L2.49999916,3.63043076 L2.49999913,3.63043076 C2.03976153,3.63043076 1.66666673,3.99541658 1.66666673,4.44564711 C1.66666673,4.44564711 1.66666673,4.44564711 1.66666673,4.44564711 L1.66666673,4.44564724 Z M4.69666524,12.3010702 L4.69666524,12.3010702 C4.39362234,12.5773103 3.91904344,12.5609224 3.6366646,12.2644674 C3.36827518,11.9826994 3.36827518,11.5458831 3.63666462,11.264115 L7.80333595,7.1880241 L7.80333594,7.18802411 C8.0962396,6.90150811 8.57111423,6.90152459 8.86399543,7.18806171 C8.88350612,7.20714971 8.9019252,7.22727648 8.91916865,7.24835008 L11.7291623,10.6844877 L15.3033329,7.18721118 L15.3033329,7.18721124 C15.6025462,6.90700505 16.0773066,6.9171381 16.3637397,7.20984672 C16.6415327,7.49372601 16.641353,7.941318 16.3633313,8.22498305 L12.19666,12.301074 L12.19666,12.301074 C11.9037563,12.58759 11.4288817,12.5875735 11.1360005,12.3010364 C11.1164898,12.2819484 11.0980707,12.2618216 11.0808273,12.240748 L8.27083367,8.80461042 L4.69666301,12.3018869 L4.69666524,12.3010702 Z" id="形状"></path>
                    </g>
                </g>
            </g>
        </g>
    </g>
</svg>