<?xml version="1.0" encoding="UTF-8"?>
<svg width="20px" height="20px" viewBox="0 0 20 20" version="1.1" xmlns="http://www.w3.org/2000/svg" xmlns:xlink="http://www.w3.org/1999/xlink">
    <!-- Generator: Sketch 60 (88103) - https://sketch.com -->
    <title>形状备份 5</title>
    <desc>Created with Sketch.</desc>
    <g id="页面-1" stroke="none" stroke-width="1" fill="none" fill-rule="evenodd">
        <g id="3.1红木家具产业概况" transform="translate(-40.000000, -362.000000)" fill="#2C46FF" fill-rule="nonzero">
            <g id="侧边栏">
                <g id="分组-21" transform="translate(0.000000, 346.000000)">
                    <g id="分组-15" transform="translate(40.000000, 15.000000)">
                        <path d="M18.4527613,4.80729862 L17.0059334,4.80729862 L17.0059334,2.50867824 C17.0059334,1.6764575 16.3121862,1 15.4586947,1 L1.5472387,1 C0.693747147,1 0,1.6764575 0,2.50867824 L0,19.4913218 C0,20.3235425 0.693747147,21 1.5472387,21 L18.4527613,21 C19.3062529,21 20,20.3235425 20,19.4913218 L20,6.31597686 C20,5.48375612 19.3062529,4.80729862 18.4527613,4.80729862 Z M18.4025559,19.4423676 L1.59744409,19.4423676 L1.59744409,2.5576324 L15.4084893,2.5576324 L15.4084893,12.9982198 C15.4084893,13.4276814 15.7667732,13.777036 16.2072113,13.777036 C16.6476495,13.777036 17.0059334,13.4276814 17.0059334,12.9982198 L17.0059334,6.36493102 L18.4025559,6.36493102 L18.4025559,19.4423676 Z M12.9986308,16.2558968 L3.86125057,16.2558968 C3.42081241,16.2558968 3.06252853,16.6052514 3.06252853,17.034713 C3.06252853,17.4641745 3.42081241,17.8135291 3.86125057,17.8135291 L12.9986308,17.8135291 C13.4390689,17.8135291 13.7973528,17.4641745 13.7973528,17.034713 C13.7973528,16.6052514 13.4390689,16.2558968 12.9986308,16.2558968 Z M13.0534003,12.6421896 L7.63350068,12.6421896 L7.63350068,9.05963507 C7.73847558,9.05073431 7.85029667,9.03738318 7.96439982,9.01958166 C8.88178914,8.88161994 9.64628024,8.53671562 10.1757188,8.02047174 C10.7051575,7.50422786 11.0611593,6.7587895 11.2003651,5.86426346 C11.3007759,5.23230975 11.2619808,4.74054295 11.2574167,4.68491322 L11.2049293,4.07743658 L10.5819261,4.02625723 C10.5271565,4.02180685 10.0228206,3.98397864 9.37243268,4.07966177 C8.45504336,4.21539831 7.69055226,4.56252781 7.16111365,5.0787717 C7.03331812,5.20338229 6.91465084,5.3435692 6.80739388,5.49488206 C6.70013692,5.3435692 6.58146965,5.20560748 6.45367412,5.0787717 C5.92423551,4.56252781 5.15974441,4.21539831 4.24235509,4.07966177 C3.5942492,3.98175345 3.08991328,4.01958166 3.03286171,4.02625723 L2.40985851,4.07743658 L2.35737106,4.68491322 C2.35280694,4.73831776 2.31401187,5.23008456 2.41214058,5.86426346 C2.55362848,6.7587895 2.90734824,7.50422786 3.43678686,8.02047174 C3.96622547,8.53671562 4.73071657,8.88384513 5.64810589,9.01958166 C5.78502967,9.03960837 5.91510726,9.05518469 6.03377453,9.06408545 L6.03377453,12.6421896 L3.91373802,12.6421896 C3.47329986,12.6421896 3.11501597,12.9915443 3.11501597,13.4210058 C3.11501597,13.8504673 3.47329986,14.199822 3.91373802,14.199822 L13.0511182,14.199822 C13.4915564,14.199822 13.8498511,13.8504673 13.8498511,13.4210058 C13.8521223,12.9915443 13.4938384,12.6421896 13.0534003,12.6421896 L13.0534003,12.6421896 Z M8.21086262,6.1023587 C8.61022364,5.7129506 9.24463715,5.5482866 9.75810132,5.4882065 C9.69648562,5.98887405 9.52989503,6.60525145 9.12825194,6.99688474 C8.72889092,7.38629283 8.09447741,7.55095683 7.58101324,7.61103694 C7.63578275,7.13262127 7.79096303,6.50956831 8.21086262,6.1023587 Z M4.48653583,6.99688474 C4.08717481,6.60747664 3.91830215,5.98887405 3.85668644,5.4882065 C4.37015062,5.5482866 5.00228206,5.71072541 5.40392515,6.1023587 C5.80328617,6.4917668 5.97215883,7.11036938 6.03377453,7.61103694 C5.52031036,7.55095683 4.88589685,7.38629283 4.48653583,6.99688474 Z M10.8055682,9.80729862 C10.8055682,10.2367601 11.1638521,10.5861148 11.6042903,10.5861148 L12.9986308,10.5861148 C13.4390689,10.5861148 13.7973528,10.2367601 13.7973528,9.80729862 C13.7973528,9.37783712 13.4390689,9.02848242 12.9986308,9.02848242 L11.6042903,9.02848242 C11.1638521,9.02848242 10.8055682,9.37783712 10.8055682,9.80729862 Z" id="形状备份-5"></path>
                    </g>
                </g>
            </g>
        </g>
    </g>
</svg>