<?xml version="1.0" encoding="UTF-8"?>
<svg width="20px" height="20px" viewBox="0 0 20 20" version="1.1" xmlns="http://www.w3.org/2000/svg" xmlns:xlink="http://www.w3.org/1999/xlink">
    <!-- Generator: Sketch 60 (88103) - https://sketch.com -->
    <title>形状</title>
    <desc>Created with Sketch.</desc>
    <g id="页面-1" stroke="none" stroke-width="1" fill="none" fill-rule="evenodd">
        <g id="3.1红木家具产业概况" transform="translate(-40.000000, -114.000000)" fill="#2C46FF" fill-rule="nonzero">
            <g id="侧边栏">
                <g id="分组" transform="translate(0.000000, 98.000000)">
                    <g id="分组-13" transform="translate(40.000000, 15.000000)">
                        <path d="M15.5393354,20.9987471 L11.6773141,20.9987471 L11.6773141,20.9987471 C11.2880518,21.0050288 10.9674158,20.6936109 10.9611529,20.3031765 C10.9610312,20.2955944 10.9610312,20.2880108 10.9611529,20.2804286 L10.9611529,14.0963779 L8.75017695,14.0963779 L8.75017695,20.2804286 C8.75017695,20.6865978 8.43896553,20.9987463 8.03401573,20.9987463 L4.23448674,20.9987463 C3.05213331,20.9987463 2.08600308,20.0309605 2.08600308,18.8437933 L2.08600308,12.5343817 L1.68105328,12.5343817 L1.68105331,12.5343817 C0.756097662,12.5378499 0.00347025851,11.7885786 0,10.8608378 C0,10.8566513 0,10.8524648 0,10.8482782 C0,10.4095153 0.156242335,10.0045997 0.467453756,9.69245119 L7.72280434,1.97774442 L7.72280447,1.97774429 C8.91218047,0.72465289 10.8867091,0.668677311 12.1447563,1.85238363 C12.1760024,1.91506406 12.2072486,1.94640427 12.2697408,1.97774448 L19.5250914,9.69245125 C20.1787604,10.3480885 20.1475142,11.4098949 19.4938453,12.0655322 C19.1826338,12.3789343 18.7464379,12.5343817 18.310242,12.5343817 L17.6878387,12.5343817 L17.6878387,18.8437934 C17.6878387,20.0309606 16.7229583,21 15.5381052,21 L15.5393354,20.9987471 Z M12.4234716,19.5621117 L15.538105,19.5621117 L15.5381051,19.5621117 C15.9486362,19.5567108 16.2801283,19.2242212 16.2855124,18.8124539 L16.2855124,11.818572 C16.2855124,11.4111492 16.5967238,11.0990007 17.0016736,11.0990007 L18.3402577,11.0990007 C18.4339961,11.0990007 18.5277345,11.0363203 18.5589806,10.9422996 C18.5902267,10.8495326 18.5902267,10.755512 18.4964883,10.6614913 L11.2111415,2.97687117 L11.2111415,2.97687117 C10.576271,2.29551928 9.5109206,2.25938989 8.83161223,2.89617228 C8.8252574,2.90212931 8.8189487,2.90813564 8.81268669,2.91419074 L8.81268668,2.91419074 C8.7792174,2.91659763 8.75259413,2.9433011 8.75019443,2.97687117 L1.49484384,10.6614913 L1.49484386,10.6614913 C1.40261311,10.7568155 1.40261311,10.9084032 1.49484383,11.0037264 C1.55733608,11.0664069 1.61982833,11.0664069 1.68232059,11.0664069 L2.83342789,11.0664069 C3.23837769,11.0664069 3.54958911,11.379809 3.54958911,11.7847245 L3.54958911,18.8124538 C3.54958911,19.218623 3.89204666,19.5621117 4.29699646,19.5621117 L7.38036422,19.5621117 L7.38036422,14.0963786 C7.38036422,13.2840403 8.03403319,12.6597433 8.81268667,12.6597433 L11.0249124,12.6597433 C11.8335622,12.6597433 12.455985,13.3153805 12.455985,14.0963786 L12.4247389,19.5621117 L12.4234716,19.5621117 Z" id="形状"></path>
                    </g>
                </g>
            </g>
        </g>
    </g>
</svg>