<?xml version="1.0" encoding="UTF-8"?>
<svg width="20px" height="20px" viewBox="0 0 20 20" version="1.1" xmlns="http://www.w3.org/2000/svg" xmlns:xlink="http://www.w3.org/1999/xlink">
    <!-- Generator: Sketch 60 (88103) - https://sketch.com -->
    <title>形状结合</title>
    <desc>Created with Sketch.</desc>
    <g id="页面-1" stroke="none" stroke-width="1" fill="none" fill-rule="evenodd">
        <g id="3.1红木家具产业概况" transform="translate(-40.000000, -238.000000)" fill="#2C46FF" fill-rule="nonzero">
            <g id="侧边栏">
                <g id="分组-19" transform="translate(0.000000, 222.000000)">
                    <g id="分组-12" transform="translate(40.000000, 15.000000)">
                        <path d="M19.3424153,2.42857143 C19.7365377,2.42857143 20,2.82142857 20,3.27197802 L20,3.27197802 L20,16.7774725 C20,17.228022 19.6936983,17.6208791 19.3424153,17.6208791 L19.3424153,17.6208791 L12.9807651,17.6208791 L12.9807651,18.7472527 L15.6132459,18.7472527 C15.8767082,18.7472527 16.0523497,18.9725275 16.0523497,19.3104396 L16.0523497,19.3104396 L16.0523497,20.4368132 C16.0523497,20.7747253 15.8767082,21 15.6132459,21 L15.6132459,21 L7.71794542,21 C7.45448314,21 7.27884162,20.7747253 7.27884162,20.4368132 L7.27884162,20.4368132 L7.27884162,19.3104396 C7.27884162,18.9725275 7.45448314,18.7472527 7.71794542,18.7472527 L7.71794542,18.7472527 L10.3525682,18.7472527 L10.3525682,17.6208791 L3.99091805,17.6208791 C3.63963501,17.6208791 3.33333333,17.228022 3.33333333,16.7774725 L3.33333333,16.7774725 L3.33333333,9.98351648 C3.74459153,10.2802198 4.1858373,10.543956 4.64850276,10.7417582 L4.64850276,10.7417582 L4.64850276,15.6510989 C4.64850276,15.8186813 4.73632352,15.9313187 4.86698368,15.9313187 L4.86698368,15.9313187 L18.4642077,15.9313187 C18.5948678,15.9313187 18.6826886,15.8186813 18.6826886,15.6510989 L18.6826886,15.6510989 L18.6826886,4.39835165 C18.6826886,4.23076923 18.5948678,4.11813187 18.4642077,4.11813187 L18.4642077,4.11813187 L12.0511502,4.11813187 C11.8048237,3.7967033 11.5242257,3.45604396 11.217924,3.11538462 C11.0165788,2.89010989 10.791672,2.65934066 10.5517714,2.42857143 L10.5517714,2.42857143 Z M5.55555556,1 C7.1406887,1 8.58053604,2.19167718 9.51079886,3.18879481 C10.3413132,4.08052603 10.9267933,4.98576833 11.1111111,5.28571429 C10.9289617,5.58566024 10.3456501,6.48820032 9.51513574,7.37993154 C8.58270448,8.3797514 7.1406887,9.57142857 5.55555556,9.57142857 C3.97042241,9.57142857 2.53057507,8.3797514 1.60031226,7.38263376 C0.769797901,6.49090254 0.184317807,5.58566024 0,5.28571429 C0.184317807,4.98847055 0.769797901,4.08052603 1.60031226,3.18879481 C2.53057507,2.18897496 3.97042241,1 5.55555556,1 Z M5.55555556,2.48351648 C5.05681325,2.48351648 4.52120739,2.65916051 3.96608552,3.00504414 C3.52155434,3.28337237 3.07268627,3.6643848 2.63032353,4.13997478 C2.24867725,4.55071158 1.92991586,4.96685282 1.70439761,5.2884165 C1.92991586,5.60998018 2.24867725,6.02612142 2.63032353,6.43685822 C3.07268627,6.91244821 3.52155434,7.29346064 3.96608552,7.57178887 C4.51903895,7.91767249 5.05464481,8.09331652 5.55338711,8.09331652 C6.05429786,8.09331652 6.58773528,7.91767249 7.14285714,7.56908665 C7.58738833,7.29075842 8.03842484,6.90704378 8.48078758,6.43145379 C8.86243386,6.0234192 9.1790268,5.60727797 9.40454506,5.2884165 C9.1790268,4.96685282 8.86026542,4.55071158 8.47861913,4.13997478 C8.0362564,3.6643848 7.58738833,3.28337237 7.14285714,3.00504414 C6.58990372,2.65916051 6.05429786,2.48351648 5.55555556,2.48351648 Z M5.61111111,3.14285714 C6.53192142,3.14285714 7.27777778,4.10181531 7.27777778,5.28571429 C7.27777778,6.46961326 6.53192142,7.42857143 5.61111111,7.42857143 C4.6903008,7.42857143 3.94444444,6.46961326 3.94444444,5.28571429 C3.94444444,4.10181531 4.6903008,3.14285714 5.61111111,3.14285714 Z" id="形状结合"></path>
                    </g>
                </g>
            </g>
        </g>
    </g>
</svg>