<?xml version="1.0" encoding="UTF-8"?>
<svg width="20px" height="22px" viewBox="0 0 20 22" version="1.1" xmlns="http://www.w3.org/2000/svg" xmlns:xlink="http://www.w3.org/1999/xlink">
    <!-- Generator: Sketch 60 (88103) - https://sketch.com -->
    <title>形状</title>
    <desc>Created with Sketch.</desc>
    <g id="页面-1" stroke="none" stroke-width="1" fill="none" fill-rule="evenodd">
        <g id="3.1红木家具产业概况" transform="translate(-40.000000, -299.000000)" fill="#2C46FF" fill-rule="nonzero">
            <g id="侧边栏">
                <g id="分组-20" transform="translate(0.000000, 284.000000)">
                    <g id="分组-14" transform="translate(40.000000, 15.000000)">
                        <path d="M19.5907288,2.9531256 L14.5635499,0.144830654 L14.5635499,0.144830658 C14.5434217,0.130957347 14.5221414,0.118634219 14.4999148,0.107980824 L14.4999148,0.107980829 C14.3800352,0.0371892962 14.2413813,-0.000240615666 14.0999231,1.16396183e-06 L14.0908324,1.16396183e-06 L14.0908324,1.16396183e-06 C13.9466784,0.000836004897 13.8054031,0.0381259593 13.6817503,0.107980828 C13.6635689,0.120835403 13.6453875,0.130262157 13.627206,0.144830662 L8.60002714,2.9531256 L8.60002708,2.95312564 C8.34328276,3.09611558 8.18724896,3.35761101 8.19094502,3.63870208 L8.19094502,6.56012486 L5.30919217,5.04757054 C5.30010146,5.04757054 5.30010146,5.03814385 5.29101074,5.03300201 L5.29101072,5.03300201 C5.16551839,4.95931196 5.02068532,4.92013303 4.87283835,4.9198817 L4.87283834,4.9198817 C4.72481045,4.91891083 4.57962398,4.9581855 4.45466596,5.03300201 L4.45466596,5.03300201 C4.44700188,5.03573195 4.44057732,5.04087988 4.43648453,5.04757053 L0.418386456,7.15485375 L0.418386454,7.15485375 C0.158381165,7.29880735 -0.000871435908,7.56218092 0.000214074573,7.84642978 L0.000214074573,20.645298 L0.000214045633,20.6452992 C-0.00995738737,21.0671576 0.343643812,21.4173516 0.791107215,21.4285703 L19.1998111,21.4285703 L19.1998111,21.4285703 C19.6495498,21.4191995 20.0069025,21.069313 19.9998988,20.6452971 L19.9998988,3.63441547 L19.9998988,3.63441534 C20.0018603,3.3548477 19.846041,3.09534425 19.5907125,2.95312251 L19.5907288,2.9531256 Z M8.15459835,19.8586012 L1.59110029,19.8586012 L1.59110029,8.31261437 L4.87284932,6.58838795 L8.15459835,8.31261437 L8.15459835,19.8594592 L8.15459835,19.8586012 Z M18.4089208,19.8586012 L9.78182074,19.8586012 L9.78182074,4.09032611 L14.0908312,1.69080645 L18.4089208,4.09032611 L18.4089208,19.8586012 Z M13.381742,7.99639633 L13.381742,17.0888735 L13.381742,17.0888734 C13.360733,17.5030037 13.6998321,17.8547777 14.1391397,17.8745845 C14.5784474,17.8943894 14.9516077,17.5747246 14.9726187,17.1605942 C14.9738308,17.1367014 14.9738308,17.1127675 14.9726187,17.0888746 L14.9726187,7.99639746 L14.9726187,7.99639752 C14.9936276,7.5822672 14.6545286,7.2304932 14.2152209,7.21068641 C13.7759133,7.19088155 13.402753,7.51054632 13.381742,7.92467665 C13.3805299,7.94856952 13.3805299,7.9725034 13.381742,7.99639627 L13.381742,7.99639633 Z M4.84556727,11.5853905 L4.84556729,11.5853905 C4.39824818,11.596146 4.04450717,11.9460938 4.05467412,12.3678057 L4.05467412,17.0888735 L4.05467413,17.0888734 C4.03366517,17.5030037 4.37276422,17.8547777 4.81207186,17.8745845 C5.25137951,17.8943894 5.62453983,17.5747246 5.64555079,17.1605942 C5.64676288,17.1367014 5.64676288,17.1127675 5.6455508,17.0888746 L5.6455508,12.3678069 L5.64555079,12.3678073 C5.65563824,11.9452646 5.30045169,11.5950161 4.85222022,11.5855072 C4.85000303,11.5854601 4.84778565,11.5853905 4.84556812,11.5853905 L4.84556727,11.5853905 Z" id="形状"></path>
                    </g>
                </g>
            </g>
        </g>
    </g>
</svg>